<svg width="24" height="25" viewBox="0 0 24 25" fill="none" xmlns="http://www.w3.org/2000/svg">
<path d="M20.0157 14.4531V6.26042C20.0157 5.92614 19.8829 5.60554 19.6465 5.36917C19.4102 5.1328 19.0895 5 18.7553 5H6.15109C5.81681 5 5.49621 5.1328 5.25984 5.36917C5.02347 5.60554 4.89067 5.92614 4.89067 6.26042V14.4531H20.0157Z" stroke="white" stroke-width="1.6" stroke-linecap="round" stroke-linejoin="round"/>
<path d="M21.798 18.3529C21.8833 18.5448 21.9193 18.7549 21.9026 18.9642C21.8861 19.1736 21.8174 19.3755 21.703 19.5515C21.5885 19.7276 21.4318 19.8723 21.2473 19.9724C21.0627 20.0726 20.8561 20.125 20.646 20.125H4.26063C4.05062 20.125 3.84395 20.0726 3.65937 19.9724C3.4748 19.8723 3.31816 19.7276 3.20371 19.5515C3.08925 19.3755 3.0206 19.1736 3.00399 18.9642C2.98739 18.7549 3.02334 18.5448 3.1086 18.3529L4.89083 14.4531H20.0158L21.798 18.3529Z" stroke="white" stroke-width="1.6" stroke-linecap="round" stroke-linejoin="round"/>
<path d="M11.1924 17.6042H13.7132" stroke="white" stroke-width="1.6" stroke-linecap="round" stroke-linejoin="round"/>
</svg>
