<svg width="20" height="21" viewBox="0 0 20 21" fill="none" xmlns="http://www.w3.org/2000/svg">
<path d="M5.00047 9.50391L3.16647 11.3439C2.37254 12.1395 1.92699 13.2178 1.92774 14.3417C1.92849 15.4657 2.37548 16.5434 3.17047 17.3379C3.56422 17.7319 4.03175 18.0444 4.54633 18.2577C5.06091 18.4709 5.61246 18.5806 6.16947 18.5806C6.72648 18.5806 7.27803 18.4709 7.79261 18.2577C8.3072 18.0444 8.77472 17.7319 9.16847 17.3379L11.0025 15.5039" stroke="#FF5026" stroke-width="1.6" stroke-linecap="round" stroke-linejoin="round"/>
<path d="M15 11.5035L16.828 9.6795C18.488 8.0235 18.488 5.3355 16.832 3.6775C16.0371 2.88178 14.9586 2.43434 13.8338 2.43359C12.7091 2.43284 11.63 2.87884 10.834 3.6735L9.00201 5.5035" stroke="#FF5026" stroke-width="1.6" stroke-linecap="round" stroke-linejoin="round"/>
<path d="M7 13.504L13 7.50403" stroke="#FF5026" stroke-width="1.6" stroke-linecap="round" stroke-linejoin="round"/>
</svg>
