<svg width="24" height="24" viewBox="0 0 24 24" fill="none" xmlns="http://www.w3.org/2000/svg">
<g clip-path="url(#clip0_3534_1494)">
<path d="M18.4386 4H6.16149C3.75279 4 1.80005 5.97112 1.80005 8.40249V14.5975C1.80005 17.0289 3.75279 19 6.16149 19H18.4386C20.8473 19 22.8 17.0289 22.8 14.5975V8.40249C22.8 5.97112 20.8473 4 18.4386 4ZM15.4889 11.8015L9.74645 14.566C9.59341 14.6396 9.41675 14.527 9.41675 14.3559V8.65395C9.41675 8.48039 9.59814 8.36804 9.75144 8.44648L15.4939 11.3839C15.6645 11.4714 15.6616 11.7183 15.4889 11.8015Z" fill="white"/>
</g>
<defs>
<clipPath id="clip0_3534_1494">
<rect width="21" height="15" fill="white" transform="translate(1.80005 4)"/>
</clipPath>
</defs>
</svg>
