<svg width="24" height="25" viewBox="0 0 24 25" fill="none" xmlns="http://www.w3.org/2000/svg">
<path d="M15.501 5.04932C16.3885 5.04939 17.1703 5.36333 17.7432 5.9165L17.8555 6.03076C18.4403 6.65903 18.7426 7.52956 18.6729 8.51025C18.6045 9.4568 18.2272 10.3318 17.626 10.978C17.0076 11.6422 16.25 11.975 15.501 11.9751C14.7523 11.9751 13.9929 11.6418 13.3721 10.9771C12.77 10.3298 12.3928 9.45529 12.3262 8.51221C12.2559 7.5178 12.5596 6.64555 13.1377 6.0249C13.7187 5.40127 14.5418 5.04932 15.501 5.04932Z" stroke="#808080" stroke-width="1.6"/>
<path d="M15.4991 15.125C17.0527 15.125 18.4728 15.4811 19.6328 16.1338L19.8614 16.2686C21.1965 17.0896 22.0749 18.2828 22.4287 19.7275L22.4297 19.7324C22.448 19.8052 22.4541 19.8806 22.4473 19.9551L22.4366 20.0293C22.4166 20.1263 22.374 20.2172 22.3145 20.2959C22.2641 20.3592 22.2009 20.4109 22.128 20.4463C22.0536 20.4823 21.972 20.5014 21.8897 20.501H9.10941C9.02667 20.5014 8.94486 20.4825 8.87015 20.4463C8.79716 20.4109 8.73318 20.3594 8.68265 20.2959C8.62288 20.2168 8.58136 20.1254 8.56155 20.0283C8.5416 19.9304 8.5438 19.8292 8.56839 19.7324L8.56937 19.7275C8.9243 18.3026 9.80106 17.1146 11.1367 16.2871C12.3306 15.5479 13.8798 15.125 15.4991 15.125Z" stroke="#808080" stroke-width="1.6"/>
<path d="M6.34464 6.59985C7.10272 6.59986 7.75835 6.88733 8.22549 7.38989C8.69783 7.89753 8.94305 8.59479 8.88565 9.37817V9.38013C8.76972 11.0043 7.53698 12.1692 6.34464 12.1692C5.22368 12.1692 4.07007 11.1445 3.83487 9.67798L3.80069 9.37915C3.74639 8.58396 3.99392 7.88479 4.45987 7.38403C4.92136 6.8877 5.583 6.59985 6.34464 6.59985Z" stroke="#808080" stroke-width="1.6"/>
<path d="M6.3457 14.6678C7.30135 14.6678 8.14072 14.8071 8.80566 15.0555C7.58312 16.0883 6.72473 17.4162 6.30078 18.951H1.24219C1.17689 18.9513 1.11233 18.9366 1.05371 18.9081C0.996324 18.8801 0.945901 18.8398 0.90625 18.7899C0.859077 18.7274 0.826269 18.6547 0.810547 18.578C0.794713 18.5004 0.797007 18.4204 0.816406 18.3436L0.817383 18.3397C1.10003 17.2051 1.79564 16.2575 2.86328 15.5946L2.86426 15.5956C3.81361 15.0074 5.0504 14.6679 6.3457 14.6678Z" stroke="#808080" stroke-width="1.6"/>
</svg>
