<svg width="24" height="24" viewBox="0 0 24 24" fill="none" xmlns="http://www.w3.org/2000/svg">
<path d="M2 3.43267C2 2.64164 2.65752 2 3.46864 2H20.5314C21.3425 2 22 2.64164 22 3.43268V20.5673C22 21.3586 21.3425 22 20.5314 22L3.46864 22C2.65752 22 2 21.3586 2 20.5673V3.43267ZM8.17922 18.7421V9.71095H5.17745V18.7421H8.17922ZM6.67832 8.4779C7.7251 8.4779 8.37664 7.78441 8.37664 6.91775C8.35713 6.03159 7.7251 5.35734 6.69818 5.35734C5.67136 5.35734 5 6.03159 5 6.91775C5 7.78441 5.65139 8.4779 6.65876 8.4779H6.67832ZM12.8142 18.7421V13.6987C12.8142 13.4288 12.8338 13.1592 12.913 12.9662C13.13 12.4269 13.6239 11.8684 14.4532 11.8684C15.5394 11.8684 15.9739 12.6966 15.9739 13.9106V18.7421H18.9754V13.5638C18.9754 10.7898 17.4945 9.49903 15.5196 9.49903C13.9272 9.49903 13.2133 10.3742 12.8143 10.9896V11.0207H12.7943C12.8009 11.0104 12.8076 11 12.8143 10.9896V9.71095H9.81258C9.85197 10.5584 9.81258 18.7421 9.81258 18.7421H12.8142Z" fill="white"/>
</svg>
