<svg width="24" height="25" viewBox="0 0 24 25" fill="none" xmlns="http://www.w3.org/2000/svg">
<path d="M20.0157 14.4531V6.26042C20.0157 5.92614 19.8829 5.60554 19.6465 5.36917C19.4102 5.1328 19.0895 5 18.7552 5H6.15107C5.81679 5 5.49619 5.1328 5.25982 5.36917C5.02345 5.60554 4.89066 5.92614 4.89066 6.26042V14.4531H20.0157Z" stroke="#808080" stroke-width="1.6" stroke-linecap="round" stroke-linejoin="round"/>
<path d="M21.798 18.3529C21.8833 18.5448 21.9193 18.7549 21.9026 18.9642C21.8861 19.1736 21.8174 19.3755 21.703 19.5515C21.5885 19.7276 21.4318 19.8723 21.2473 19.9724C21.0627 20.0726 20.8561 20.125 20.646 20.125H4.26061C4.05061 20.125 3.84393 20.0726 3.65936 19.9724C3.47478 19.8723 3.31815 19.7276 3.20369 19.5515C3.08924 19.3755 3.02059 19.1736 3.00398 18.9642C2.98737 18.7549 3.02333 18.5448 3.10859 18.3529L4.89082 14.4531H20.0158L21.798 18.3529Z" stroke="#808080" stroke-width="1.6" stroke-linecap="round" stroke-linejoin="round"/>
<path d="M11.1924 17.6042H13.7132" stroke="#808080" stroke-width="1.6" stroke-linecap="round" stroke-linejoin="round"/>
</svg>
