<svg width="24" height="24" viewBox="0 0 24 24" fill="none" xmlns="http://www.w3.org/2000/svg">
<g clip-path="url(#clip0_3534_1496)">
<path d="M16.042 2H7.958C4.67275 2 2 4.67275 2 7.958V16.0417C2 19.327 4.67275 21.9998 7.958 21.9998H16.0417C19.327 21.9998 21.9998 19.327 21.9998 16.0417V7.958C21.9998 4.67275 19.327 2 16.0417 2H16.042ZM19.988 16.042C19.988 18.2213 18.2213 19.988 16.042 19.988H7.958C5.77875 19.988 4.012 18.2213 4.012 16.042V7.958C4.012 5.7785 5.77875 4.012 7.958 4.012H16.0417C18.221 4.012 19.9878 5.77875 19.9878 7.958V16.0417L19.988 16.042Z" fill="white"/>
<path d="M11.9984 6.82861C9.14618 6.82861 6.82568 9.14911 6.82568 12.0014C6.82568 14.8536 9.14618 17.1741 11.9984 17.1741C14.8507 17.1741 17.1712 14.8536 17.1712 12.0014C17.1712 9.14911 14.8507 6.82861 11.9984 6.82861ZM11.9984 15.1621C10.2527 15.1621 8.83768 13.7471 8.83768 12.0014C8.83768 10.2556 10.2527 8.84061 11.9984 8.84061C13.7442 8.84061 15.1592 10.2556 15.1592 12.0014C15.1592 13.7471 13.7442 15.1621 11.9984 15.1621Z" fill="white"/>
<path d="M17.1818 8.10571C17.8663 8.10571 18.4213 7.55077 18.4213 6.86621C18.4213 6.18165 17.8663 5.62671 17.1818 5.62671C16.4972 5.62671 15.9423 6.18165 15.9423 6.86621C15.9423 7.55077 16.4972 8.10571 17.1818 8.10571Z" fill="white"/>
</g>
<defs>
<clipPath id="clip0_3534_1496">
<rect width="20" height="20" fill="white" transform="translate(2 2)"/>
</clipPath>
</defs>
</svg>
